<svg xmlns="http://www.w3.org/2000/svg" viewBox="0 0 240 240" role="img" aria-labelledby="title desc">
<title id="title">SWARIVO digital S mark</title><desc id="desc">A refined S-shaped digital product mark with an integrated leaf.</desc>
<defs>
 <linearGradient id="body" x1="62" y1="50" x2="190" y2="206" gradientUnits="userSpaceOnUse">
  <stop stop-color="#C9F47B"/><stop offset=".18" stop-color="#73D95C"/><stop offset=".46" stop-color="#18B66B"/><stop offset=".75" stop-color="#087D58"/><stop offset="1" stop-color="#053D32"/>
 </linearGradient>
 <linearGradient id="leaf" x1="120" y1="30" x2="196" y2="104" gradientUnits="userSpaceOnUse">
  <stop stop-color="#F0FFA8"/><stop offset=".3" stop-color="#B9EF70"/><stop offset=".7" stop-color="#55D34E"/><stop offset="1" stop-color="#26984B"/>
 </linearGradient>
 <linearGradient id="edge" x1="78" y1="70" x2="180" y2="170" gradientUnits="userSpaceOnUse">
  <stop stop-color="#F3FFB8" stop-opacity=".95"/><stop offset=".5" stop-color="#B7F58A" stop-opacity=".25"/><stop offset="1" stop-color="#B7F58A" stop-opacity="0"/>
 </linearGradient>
 <filter id="depth" x="-30%" y="-30%" width="160%" height="160%">
  <feDropShadow dx="0" dy="10" stdDeviation="8" flood-color="#001B13" flood-opacity=".38"/>
 </filter>
</defs>
<g filter="url(#depth)">
 <path fill="url(#body)" d="M157 46c-28 0-53 8-66 22-10 11-11 23-3 33 7 9 19 15 38 23l37 16c14 6 20 12 18 19-2 8-12 14-27 18-18 5-36 4-51-2 12 15 32 23 54 22 25-1 46-12 54-30 8-19-1-34-25-46l-39-20c-11-5-15-10-11-16 5-8 19-13 38-13 14 0 26 3 36 8-3-20-17-34-53-34z"/>
 <path fill="#063D31" d="M88 119c12 9 27 16 44 23l37 16c8 4 12 8 11 12-2 6-10 11-21 14-16 4-32 3-46-2 11 10 26 15 42 15 20-1 38-9 45-22 7-13 1-25-17-34l-40-19c-17-8-29-15-36-24-6 6-10 13-19 21z"/>
 <path fill="url(#leaf)" d="M113 88c5-28 23-50 51-63 13-6 26-9 39-9-1 26-9 49-25 65-16 16-37 25-62 27 1-7 0-14-3-20z"/>
 <path d="M128 88c16-21 31-36 51-50" fill="none" stroke="#F5FFD7" stroke-width="5" stroke-linecap="round" opacity=".92"/>
 <path d="M100 74c12-13 30-20 54-22" fill="none" stroke="url(#edge)" stroke-width="7" stroke-linecap="round"/>
 <path d="M84 101c5 9 15 15 29 21" fill="none" stroke="#DFFFAB" stroke-width="4" stroke-linecap="round" opacity=".65"/>
</g>
<style>
g{transform-origin:120px 120px;animation:float 6s cubic-bezier(.4,0,.2,1) infinite}
@keyframes float{0%,100%{transform:translateY(0)}50%{transform:translateY(-3px)}}
@media(prefers-reduced-motion:reduce){g{animation:none}}
</style>
</svg>